# xmcd
#
# Track frame offsets:
#	150
#	3103
#	19735
#	33903
#	53452
#	68380
#	87898
#	102954
#	123504
#	141693
#	162073
#	178498
#	196074
#	213135
# Disc length: 3188 seconds
# Revision: 1
# Processed by: cddbd v1.5.1PL2 Copyright (c) Steve Scherf et al.
#
# Submitted via: libkcddb 0.21
#
DISCID=ae0c720e
DTITLE=Del McCoury Band - Live at the Strawberry Music Festival [CD2]
DYEAR=2002
DGENRE=Bluegrass
TTITLE0=Introduction
TTITLE1=High on the Mountain
TTITLE2=A Recovering Pharasee
TTITLE3=Get Down on Your Knees and Pray
TTITLE4=Building
TTITLE5=Blackjack County Chains
TTITLE6=You'll Soon Regret
TTITLE7=Vincent Black Lightning
TTITLE8=Gone but not Forgotten
TTITLE9=City of Stone
TTITLE10=Red as a Rose
TTITLE11=Like the Wind
TTITLE12=Take Me With You to the Mountains
TTITLE13=Mando Instrumental
EXTD=
EXTT0=
EXTT1=
EXTT2=
EXTT3=
EXTT4=
EXTT5=
EXTT6=
EXTT7=
EXTT8=
EXTT9=
EXTT10=
EXTT11=
EXTT12=
EXTT13=
PLAYORDER=
